<svg xmlns="http://www.w3.org/2000/svg" width="256" height="256" viewBox="0 0 100 100"><rect width="100" height="100" rx="20" fill="#4c495e" data-darkreader-inline-fill="" style="--darkreader-inline-fill: #1c1269;"></rect><path d="M55.76 68.34Q57.91 68.34 58.84 68.00Q59.77 67.65 60.84 67.65Q61.91 67.65 62.79 68.48Q63.67 69.31 63.67 70.93Q63.67 72.54 62.11 73.22L62.11 73.22Q58.69 74.78 56.25 74.78Q53.81 74.78 51.81 74.54Q49.80 74.29 47.95 73.22L47.95 73.22Q43.55 70.68 43.55 64.24L43.55 64.24L43.55 39.43L37.89 39.43Q36.43 39.43 36.33 37.87L36.33 37.87Q36.33 37.18 37.11 36.60L37.11 36.60L47.95 25.95Q48.63 25.27 49.32 25.22Q50 25.17 50.39 25.66Q50.78 26.15 50.78 26.83L50.78 26.83L50.78 33.18L59.86 33.18Q61.23 33.18 62.11 34.06Q62.99 34.94 62.99 36.31L62.99 36.31Q62.99 37.67 62.11 38.55Q61.23 39.43 59.86 39.43L59.86 39.43L50.78 39.43L50.78 63.65Q50.78 66.68 52.64 67.75L52.64 67.75Q53.61 68.34 55.76 68.34Z" fill="#fff" data-darkreader-inline-fill="" style="--darkreader-inline-fill: #131516;"></path></svg>